<svg xmlns="http://www.w3.org/2000/svg" version="1.1" xmlns:xlink="http://www.w3.org/1999/xlink" xmlns:svgjs="http://svgjs.dev/svgjs" width="1440" height="560" preserveAspectRatio="none" viewBox="0 0 1440 560"><g mask="url(&quot;#SvgjsMask1152&quot;)" fill="none"><rect width="1440" height="560" x="0" y="0" fill="rgba(250, 129, 47, 1)"></rect><use xlink:href="#SvgjsG1160" transform="translate(0, 0)" fill="rgba(255, 255, 255, 1)"></use><use xlink:href="#SvgjsG1160" transform="translate(0, 480)" fill="rgba(255, 255, 255, 1)"></use><use xlink:href="#SvgjsG1160" transform="translate(480, 0)" fill="rgba(255, 255, 255, 1)"></use><use xlink:href="#SvgjsG1160" transform="translate(480, 480)" fill="rgba(255, 255, 255, 1)"></use><use xlink:href="#SvgjsG1160" transform="translate(960, 0)" fill="rgba(255, 255, 255, 1)"></use><use xlink:href="#SvgjsG1160" transform="translate(960, 480)" fill="rgba(255, 255, 255, 1)"></use></g><defs><mask id="SvgjsMask1152"><rect width="1440" height="560" fill="#ffffff"></rect></mask><g id="SvgjsG1159"><path d="M7.713 15.485C3.459 15.485 0 12.025 0 7.768 0 3.513 3.459 0.051 7.713 0.051S15.432 3.513 15.432 7.768c0 4.257-3.465 7.716-7.719 7.717z m0-1.91c3.201 0 5.81-2.604 5.81-5.809 0-3.199-2.61-5.807-5.81-5.807-3.202 0-5.804 2.609-5.804 5.807-0.001 3.206 2.602 5.809 5.804 5.809z"></path><path d="M7.753 8.787a0.574 0.574 0 0 1-0.554-0.042 0.578 0.578 0 0 1-0.259-0.399L6.931 3.862a0.58 0.58 0 0 1 1.162 0v3.478l2.975-1.4a0.578 0.578 0 0 1 0.773 0.275c0.138 0.292 0.011 0.637-0.276 0.774l-3.81 1.798z"></path></g><g id="SvgjsG1154"><path d="M15.233 9.431c0.295 0 0.569-0.239 0.61-0.532 0 0 0.056-0.411 0.056-0.899s-0.056-0.899-0.056-0.899c-0.041-0.292-0.315-0.531-0.61-0.53h-1.524c-0.295 0-0.602-0.188-0.681-0.418s-0.188-0.967 0.021-1.176l1.078-1.077c0.209-0.209 0.225-0.565 0.036-0.792l-1.268-1.268c-0.227-0.189-0.583-0.173-0.792 0.036l-1.078 1.077c-0.208 0.209-0.556 0.293-0.772 0.187s-0.822-0.552-0.821-0.847V0.767c0-0.295-0.239-0.569-0.531-0.61 0 0-0.411-0.057-0.9-0.056s-0.899 0.057-0.899 0.056c-0.293 0.04-0.532 0.315-0.532 0.61v1.524c0 0.295-0.188 0.601-0.418 0.681s-0.967 0.188-1.176-0.021l-1.078-1.078C3.689 1.665 3.333 1.649 3.107 1.837l-1.268 1.268c-0.189 0.227-0.173 0.583 0.036 0.792l1.077 1.078c0.209 0.209 0.293 0.556 0.187 0.772s-0.552 0.822-0.847 0.822H0.767c-0.295 0-0.569 0.239-0.61 0.531 0 0-0.057 0.411-0.056 0.899s0.057 0.899 0.056 0.9c0.04 0.293 0.315 0.532 0.61 0.532h1.525c0.295 0 0.601 0.188 0.681 0.417 0.079 0.23 0.188 0.967-0.02 1.176l-1.078 1.077C1.667 12.311 1.651 12.667 1.84 12.893l1.267 1.268c0.227 0.189 0.583 0.173 0.792-0.036l1.077-1.077c0.209-0.208 0.556-0.292 0.772-0.187s0.821 0.553 0.822 0.848v1.524c0 0.295 0.239 0.569 0.532 0.61 0 0 0.411 0.057 0.899 0.057s0.899-0.056 0.899-0.057c0.293-0.04 0.531-0.315 0.532-0.609v-1.524c0-0.295 0.188-0.602 0.418-0.681 0.23-0.079 0.967-0.188 1.176 0.021l1.077 1.077c0.209 0.209 0.565 0.225 0.792 0.036l1.268-1.267c0.189-0.227 0.173-0.583-0.036-0.792l-1.078-1.077c-0.209-0.209-0.293-0.557-0.186-0.773 0.106-0.216 0.552-0.822 0.847-0.822h1.525zM8 10.892c-1.597 0-2.891-1.294-2.891-2.892 0-1.596 1.295-2.891 2.891-2.891S10.892 6.404 10.892 8 9.597 10.892 8 10.892z"></path></g><g id="SvgjsG1158"><path d="M4.096 1.54l10.36 10.364L11.906 14.46 1.54 4.096 4.096 1.54z" fill-rule="evenodd"></path><path d="M11.904 1.54L14.46 4.1 4.096 14.46 1.54 11.904 11.906 1.544z" fill-rule="evenodd"></path></g><g id="SvgjsG1156"><path d="M15.98 13.856L11.694 9.568a6.304 6.304 0 1 0-5.388 3.04 6.26 6.26 0 0 0 3.26-0.914l4.29 4.292L15.98 13.856zM2.406 6.308a3.908 3.908 0 0 1 3.9-3.9 3.906 3.906 0 0 1 3.9 3.9 3.9 3.9 0 0 1-7.8 0z"></path></g><g id="SvgjsG1153"><path d="M14.232 5.485L6.361 15.96l1.815-7.368-4.222 0.071L5.679 0h5.121L8.744 5.489z"></path></g><g id="SvgjsG1155"><path d="M8.001 3.107c1.307 0 2.535 0.509 3.459 1.433C12.385 5.464 12.893 6.693 12.893 8s-0.509 2.536-1.433 3.46c-0.924 0.924-2.153 1.433-3.46 1.434s-2.536-0.509-3.46-1.434C3.615 10.536 3.106 9.307 3.106 8s0.509-2.536 1.434-3.46c0.924-0.924 2.153-1.433 3.461-1.434m-0.001-2.666c-1.935 0-3.87 0.739-5.346 2.214-2.953 2.952-2.952 7.739 0 10.692 1.476 1.477 3.411 2.215 5.346 2.215s3.869-0.738 5.346-2.215c2.953-2.953 2.953-7.739 0-10.691C11.871 1.178 9.937 0.44 8.002 0.44z"></path><path d="M2.424 4.404l1.98-1.979 9.12 9.119-1.98 1.98z"></path></g><g id="SvgjsG1157"><path d="M9.357 0C13.126 0.168 16 3.925 16 7.499c0 3.573-2.892 7.291-6.643 7.567V0zM6.643 0C2.869 0.168-0.004 3.925 0 7.499-0.004 11.072 2.888 14.79 6.643 15.066V0z"></path></g><g id="SvgjsG1160"><use xlink:href="#SvgjsG1153" transform="translate(0, 0) scale(2)" fill="rgba(255, 255, 255, 1)"></use><use xlink:href="#SvgjsG1154" transform="translate(0, 48) scale(2)" fill="rgba(255, 255, 255, 1)"></use><use xlink:href="#SvgjsG1155" transform="translate(0, 96) scale(2)" fill="rgba(255, 255, 255, 1)"></use><use xlink:href="#SvgjsG1154" transform="translate(0, 144) scale(2)" fill="rgba(255, 255, 255, 1)"></use><use xlink:href="#SvgjsG1153" transform="translate(0, 192) scale(2)" fill="rgba(255, 255, 255, 1)"></use><use xlink:href="#SvgjsG1155" transform="translate(0, 240) scale(2)" fill="rgba(255, 255, 255, 1)"></use><use xlink:href="#SvgjsG1156" transform="translate(0, 288) scale(2)" fill="rgba(255, 255, 255, 1)"></use><use xlink:href="#SvgjsG1154" transform="translate(0, 336) scale(2)" fill="rgba(255, 255, 255, 1)"></use><use xlink:href="#SvgjsG1157" transform="translate(0, 384) scale(2)" fill="rgba(255, 255, 255, 1)"></use><use xlink:href="#SvgjsG1153" transform="translate(0, 432) scale(2)" fill="rgba(255, 255, 255, 1)"></use><use xlink:href="#SvgjsG1158" transform="translate(48, 0) scale(2)" fill="rgba(255, 255, 255, 1)"></use><use xlink:href="#SvgjsG1155" transform="translate(48, 48) scale(2)" fill="rgba(255, 255, 255, 1)"></use><use xlink:href="#SvgjsG1153" transform="translate(48, 96) scale(2)" fill="rgba(255, 255, 255, 1)"></use><use xlink:href="#SvgjsG1155" transform="translate(48, 144) scale(2)" fill="rgba(255, 255, 255, 1)"></use><use xlink:href="#SvgjsG1153" transform="translate(48, 192) scale(2)" fill="rgba(255, 255, 255, 1)"></use><use xlink:href="#SvgjsG1153" transform="translate(48, 240) scale(2)" fill="rgba(255, 255, 255, 1)"></use><use xlink:href="#SvgjsG1155" transform="translate(48, 288) scale(2)" fill="rgba(255, 255, 255, 1)"></use><use xlink:href="#SvgjsG1154" transform="translate(48, 336) scale(2)" fill="rgba(255, 255, 255, 1)"></use><use xlink:href="#SvgjsG1154" transform="translate(48, 384) scale(2)" fill="rgba(255, 255, 255, 1)"></use><use xlink:href="#SvgjsG1155" transform="translate(48, 432) scale(2)" fill="rgba(255, 255, 255, 1)"></use><use xlink:href="#SvgjsG1157" transform="translate(96, 0) scale(2)" fill="rgba(255, 255, 255, 1)"></use><use xlink:href="#SvgjsG1156" transform="translate(96, 48) scale(2)" fill="rgba(255, 255, 255, 1)"></use><use xlink:href="#SvgjsG1155" transform="translate(96, 96) scale(2)" fill="rgba(255, 255, 255, 1)"></use><use xlink:href="#SvgjsG1156" transform="translate(96, 144) scale(2)" fill="rgba(255, 255, 255, 1)"></use><use xlink:href="#SvgjsG1155" transform="translate(96, 192) scale(2)" fill="rgba(255, 255, 255, 1)"></use><use xlink:href="#SvgjsG1154" transform="translate(96, 240) scale(2)" fill="rgba(255, 255, 255, 1)"></use><use xlink:href="#SvgjsG1154" transform="translate(96, 288) scale(2)" fill="rgba(255, 255, 255, 1)"></use><use xlink:href="#SvgjsG1158" transform="translate(96, 336) scale(2)" fill="rgba(255, 255, 255, 1)"></use><use xlink:href="#SvgjsG1155" transform="translate(96, 384) scale(2)" fill="rgba(255, 255, 255, 1)"></use><use xlink:href="#SvgjsG1159" transform="translate(96, 432) scale(2)" fill="rgba(255, 255, 255, 1)"></use><use xlink:href="#SvgjsG1155" transform="translate(144, 0) scale(2)" fill="rgba(255, 255, 255, 1)"></use><use xlink:href="#SvgjsG1155" transform="translate(144, 48) scale(2)" fill="rgba(255, 255, 255, 1)"></use><use xlink:href="#SvgjsG1157" transform="translate(144, 96) scale(2)" fill="rgba(255, 255, 255, 1)"></use><use xlink:href="#SvgjsG1155" transform="translate(144, 144) scale(2)" fill="rgba(255, 255, 255, 1)"></use><use xlink:href="#SvgjsG1157" transform="translate(144, 192) scale(2)" fill="rgba(255, 255, 255, 1)"></use><use xlink:href="#SvgjsG1159" transform="translate(144, 240) scale(2)" fill="rgba(255, 255, 255, 1)"></use><use xlink:href="#SvgjsG1157" transform="translate(144, 288) scale(2)" fill="rgba(255, 255, 255, 1)"></use><use xlink:href="#SvgjsG1159" transform="translate(144, 336) scale(2)" fill="rgba(255, 255, 255, 1)"></use><use xlink:href="#SvgjsG1159" transform="translate(144, 384) scale(2)" fill="rgba(255, 255, 255, 1)"></use><use xlink:href="#SvgjsG1158" transform="translate(144, 432) scale(2)" fill="rgba(255, 255, 255, 1)"></use><use xlink:href="#SvgjsG1157" transform="translate(192, 0) scale(2)" fill="rgba(255, 255, 255, 1)"></use><use xlink:href="#SvgjsG1158" transform="translate(192, 48) scale(2)" fill="rgba(255, 255, 255, 1)"></use><use xlink:href="#SvgjsG1153" transform="translate(192, 96) scale(2)" fill="rgba(255, 255, 255, 1)"></use><use xlink:href="#SvgjsG1158" transform="translate(192, 144) scale(2)" fill="rgba(255, 255, 255, 1)"></use><use xlink:href="#SvgjsG1158" transform="translate(192, 192) scale(2)" fill="rgba(255, 255, 255, 1)"></use><use xlink:href="#SvgjsG1154" transform="translate(192, 240) scale(2)" fill="rgba(255, 255, 255, 1)"></use><use xlink:href="#SvgjsG1156" transform="translate(192, 288) scale(2)" fill="rgba(255, 255, 255, 1)"></use><use xlink:href="#SvgjsG1155" transform="translate(192, 336) scale(2)" fill="rgba(255, 255, 255, 1)"></use><use xlink:href="#SvgjsG1159" transform="translate(192, 384) scale(2)" fill="rgba(255, 255, 255, 1)"></use><use xlink:href="#SvgjsG1157" transform="translate(192, 432) scale(2)" fill="rgba(255, 255, 255, 1)"></use><use xlink:href="#SvgjsG1154" transform="translate(240, 0) scale(2)" fill="rgba(255, 255, 255, 1)"></use><use xlink:href="#SvgjsG1156" transform="translate(240, 48) scale(2)" fill="rgba(255, 255, 255, 1)"></use><use xlink:href="#SvgjsG1153" transform="translate(240, 96) scale(2)" fill="rgba(255, 255, 255, 1)"></use><use xlink:href="#SvgjsG1158" transform="translate(240, 144) scale(2)" fill="rgba(255, 255, 255, 1)"></use><use xlink:href="#SvgjsG1155" transform="translate(240, 192) scale(2)" fill="rgba(255, 255, 255, 1)"></use><use xlink:href="#SvgjsG1158" transform="translate(240, 240) scale(2)" fill="rgba(255, 255, 255, 1)"></use><use xlink:href="#SvgjsG1154" transform="translate(240, 288) scale(2)" fill="rgba(255, 255, 255, 1)"></use><use xlink:href="#SvgjsG1159" transform="translate(240, 336) scale(2)" fill="rgba(255, 255, 255, 1)"></use><use xlink:href="#SvgjsG1153" transform="translate(240, 384) scale(2)" fill="rgba(255, 255, 255, 1)"></use><use xlink:href="#SvgjsG1153" transform="translate(240, 432) scale(2)" fill="rgba(255, 255, 255, 1)"></use><use xlink:href="#SvgjsG1157" transform="translate(288, 0) scale(2)" fill="rgba(255, 255, 255, 1)"></use><use xlink:href="#SvgjsG1154" transform="translate(288, 48) scale(2)" fill="rgba(255, 255, 255, 1)"></use><use xlink:href="#SvgjsG1154" transform="translate(288, 96) scale(2)" fill="rgba(255, 255, 255, 1)"></use><use xlink:href="#SvgjsG1153" transform="translate(288, 144) scale(2)" fill="rgba(255, 255, 255, 1)"></use><use xlink:href="#SvgjsG1158" transform="translate(288, 192) scale(2)" fill="rgba(255, 255, 255, 1)"></use><use xlink:href="#SvgjsG1154" transform="translate(288, 240) scale(2)" fill="rgba(255, 255, 255, 1)"></use><use xlink:href="#SvgjsG1154" transform="translate(288, 288) scale(2)" fill="rgba(255, 255, 255, 1)"></use><use xlink:href="#SvgjsG1154" transform="translate(288, 336) scale(2)" fill="rgba(255, 255, 255, 1)"></use><use xlink:href="#SvgjsG1158" transform="translate(288, 384) scale(2)" fill="rgba(255, 255, 255, 1)"></use><use xlink:href="#SvgjsG1154" transform="translate(288, 432) scale(2)" fill="rgba(255, 255, 255, 1)"></use><use xlink:href="#SvgjsG1155" transform="translate(336, 0) scale(2)" fill="rgba(255, 255, 255, 1)"></use><use xlink:href="#SvgjsG1159" transform="translate(336, 48) scale(2)" fill="rgba(255, 255, 255, 1)"></use><use xlink:href="#SvgjsG1155" transform="translate(336, 96) scale(2)" fill="rgba(255, 255, 255, 1)"></use><use xlink:href="#SvgjsG1156" transform="translate(336, 144) scale(2)" fill="rgba(255, 255, 255, 1)"></use><use xlink:href="#SvgjsG1154" transform="translate(336, 192) scale(2)" fill="rgba(255, 255, 255, 1)"></use><use xlink:href="#SvgjsG1155" transform="translate(336, 240) scale(2)" fill="rgba(255, 255, 255, 1)"></use><use xlink:href="#SvgjsG1159" transform="translate(336, 288) scale(2)" fill="rgba(255, 255, 255, 1)"></use><use xlink:href="#SvgjsG1153" transform="translate(336, 336) scale(2)" fill="rgba(255, 255, 255, 1)"></use><use xlink:href="#SvgjsG1153" transform="translate(336, 384) scale(2)" fill="rgba(255, 255, 255, 1)"></use><use xlink:href="#SvgjsG1155" transform="translate(336, 432) scale(2)" fill="rgba(255, 255, 255, 1)"></use><use xlink:href="#SvgjsG1158" transform="translate(384, 0) scale(2)" fill="rgba(255, 255, 255, 1)"></use><use xlink:href="#SvgjsG1157" transform="translate(384, 48) scale(2)" fill="rgba(255, 255, 255, 1)"></use><use xlink:href="#SvgjsG1156" transform="translate(384, 96) scale(2)" fill="rgba(255, 255, 255, 1)"></use><use xlink:href="#SvgjsG1158" transform="translate(384, 144) scale(2)" fill="rgba(255, 255, 255, 1)"></use><use xlink:href="#SvgjsG1156" transform="translate(384, 192) scale(2)" fill="rgba(255, 255, 255, 1)"></use><use xlink:href="#SvgjsG1153" transform="translate(384, 240) scale(2)" fill="rgba(255, 255, 255, 1)"></use><use xlink:href="#SvgjsG1159" transform="translate(384, 288) scale(2)" fill="rgba(255, 255, 255, 1)"></use><use xlink:href="#SvgjsG1154" transform="translate(384, 336) scale(2)" fill="rgba(255, 255, 255, 1)"></use><use xlink:href="#SvgjsG1158" transform="translate(384, 384) scale(2)" fill="rgba(255, 255, 255, 1)"></use><use xlink:href="#SvgjsG1157" transform="translate(384, 432) scale(2)" fill="rgba(255, 255, 255, 1)"></use><use xlink:href="#SvgjsG1157" transform="translate(432, 0) scale(2)" fill="rgba(255, 255, 255, 1)"></use><use xlink:href="#SvgjsG1153" transform="translate(432, 48) scale(2)" fill="rgba(255, 255, 255, 1)"></use><use xlink:href="#SvgjsG1154" transform="translate(432, 96) scale(2)" fill="rgba(255, 255, 255, 1)"></use><use xlink:href="#SvgjsG1154" transform="translate(432, 144) scale(2)" fill="rgba(255, 255, 255, 1)"></use><use xlink:href="#SvgjsG1157" transform="translate(432, 192) scale(2)" fill="rgba(255, 255, 255, 1)"></use><use xlink:href="#SvgjsG1154" transform="translate(432, 240) scale(2)" fill="rgba(255, 255, 255, 1)"></use><use xlink:href="#SvgjsG1154" transform="translate(432, 288) scale(2)" fill="rgba(255, 255, 255, 1)"></use><use xlink:href="#SvgjsG1153" transform="translate(432, 336) scale(2)" fill="rgba(255, 255, 255, 1)"></use><use xlink:href="#SvgjsG1156" transform="translate(432, 384) scale(2)" fill="rgba(255, 255, 255, 1)"></use><use xlink:href="#SvgjsG1156" transform="translate(432, 432) scale(2)" fill="rgba(255, 255, 255, 1)"></use></g></defs></svg>